# xmcd
#
# Track frame offsets:
#	150
#	15093
#	30885
#	48285
#	66381
#	87059
#	104183
#	121078
#	136133
#	152367
#	172285
#	193594
#	210522
#	227769
#
# Disc length: 3246 seconds
#
# Revision: 0
# Processed by: cddbd v1.5.1PL2 Copyright (c) Steve Scherf et al.
# Submitted via: EasyCDDAExtractor 8.1.2.3
#
DISCID=ab0cac0e
DTITLE=Pink - I'm not dead
DYEAR=2006
DGENRE=R&B
TTITLE0=Stupid Girls
TTITLE1=Who Knew
TTITLE2=Long Way To Happy
TTITLE3=Nobody Knows
TTITLE4=Dear Mr. President
TTITLE5=I'm Not Dead
TTITLE6=Cuz I Can
TTITLE7=Leave Me Alone (I'm Lonely)
TTITLE8=U and Ur Hand
TTITLE9=Runaway 
TTITLE10=The One That Got Away 
TTITLE11=Fingers 
TTITLE12=Centerfold
TTITLE13=I Have Seen The Rain (Hidden Track)
EXTD=
EXTT0=
EXTT1=
EXTT2=
EXTT3=
EXTT4=
EXTT5=
EXTT6=
EXTT7=
EXTT8=
EXTT9=
EXTT10=
EXTT11=
EXTT12=
EXTT13=
PLAYORDER=
